<svg width="158" height="163" viewBox="0 0 158 163" fill="none" xmlns="http://www.w3.org/2000/svg">
<g clip-path="url(#clip0)">
<path d="M11.9102 1.3978C13.7744 0.529886 15.9875 1.33695 16.8551 3.20133L19.6707 9.24984C24.2354 8.83627 28.7751 11.1701 30.8175 15.5488L33.6935 21.7321C35.3872 25.3639 38.4105 27.8749 41.7285 28.4427C52.3857 30.2862 61.6408 37.6501 66.5419 48.19C68.8041 53.0429 69.9495 58.1886 69.9361 63.477C69.9404 65.3436 71.0796 66.7922 72.7323 67.1201C85.9853 69.5698 96.658 77.6094 102.034 89.1501C111.563 109.619 101.15 134.725 78.8217 145.121C67.0212 150.615 54.2158 150.917 43.359 146.958C33.6771 143.427 25.539 136.501 21.0476 126.854C15.6732 115.31 16.4044 101.972 23.0499 90.2529C23.8883 88.7708 23.4936 86.9672 22.0654 85.7693C18.0079 82.3705 14.8072 78.1813 12.5497 73.3263C7.64396 62.789 7.96461 50.938 13.4111 41.6258C15.1235 38.702 15.1386 34.7881 13.4482 31.1573L10.5644 24.9751C8.52798 20.591 9.66818 15.6178 12.9226 12.3917L10.1068 6.3431C9.23885 4.47886 10.046 2.26548 11.9102 1.3978ZM63.1273 130.119C65.0586 130.823 67.1954 129.828 67.8998 127.897C68.6042 125.965 67.6092 123.829 65.6779 123.125C63.7467 122.42 61.61 123.414 60.9055 125.346C60.2011 127.278 61.1961 129.415 63.1273 130.119ZM46.5884 132.012C48.5196 132.716 50.6565 131.722 51.3608 129.79C52.0653 127.858 51.0702 125.722 49.139 125.018C47.2077 124.313 45.071 125.308 44.3665 127.24C43.6623 129.171 44.6569 131.308 46.5884 132.012ZM35.1504 119.917C37.0816 120.621 39.2185 119.626 39.9228 117.695C40.6273 115.763 39.6325 113.627 37.701 112.922C35.7697 112.218 33.6331 113.212 32.9285 115.144C32.2242 117.076 33.2191 119.212 35.1504 119.917Z" fill="black"/>
<path d="M71.6784 49.2227H72.0299V53.582H77.6549V56.8516H72.0299V64.4277C72.0299 65.166 72.2526 65.7637 72.6979 66.2207C73.1432 66.6777 73.7526 66.9062 74.526 66.9062C75.5338 66.9062 76.694 66.543 78.0065 65.8164V69.2793C76.4479 69.9707 74.983 70.3164 73.612 70.3164C71.7604 70.3164 70.3131 69.8125 69.2702 68.8047C68.2389 67.7969 67.7233 66.4316 67.7233 64.709V56.8516H65.1569V56.1484L68.4176 52.6855L71.6784 49.2227Z" fill="black"/>
<path d="M54.2738 27.2656C55.9847 27.2656 57.5374 27.6231 58.932 28.3379C60.3265 29.0527 61.4046 30.0547 62.1663 31.3438C62.928 32.6328 63.3089 34.0918 63.3089 35.7207C63.3089 37.4199 62.9398 38.9082 62.2015 40.1855C62.1131 40.341 62.0195 40.4924 61.9206 40.6399C61.2073 41.7042 60.2228 42.5606 58.9671 43.209C57.5491 43.9473 55.9847 44.3164 54.2738 44.3164C52.5511 44.3164 50.9866 43.9473 49.5804 43.209C48.1741 42.4707 47.1019 41.4629 46.3636 40.1855C45.637 38.9082 45.2738 37.4199 45.2738 35.7207C45.2738 34.0684 45.6605 32.6035 46.4339 31.3262C46.7238 30.843 47.0566 30.4009 47.4322 30C48.0585 29.3315 48.8039 28.7774 49.6683 28.3379C51.0511 27.6231 52.5863 27.2656 54.2738 27.2656ZM49.8089 35.7207C49.8089 37.3613 50.2073 38.6738 51.0042 39.6582C51.8128 40.6309 52.8909 41.1172 54.2386 41.1172C55.6448 41.1172 56.7523 40.6484 57.5609 39.7109C58.1257 39.0561 58.4933 38.204 58.6635 37.1546C58.7371 36.7017 58.7738 36.212 58.7738 35.6855C58.7738 34.0215 58.3636 32.7383 57.5433 31.8359C56.7347 30.9219 55.6331 30.4648 54.2386 30.4648C53.02 30.4648 52.0136 30.879 51.2193 31.7073C51.158 31.7712 51.0981 31.8375 51.0394 31.9062C50.2191 32.8672 49.8089 34.1387 49.8089 35.7207Z" fill="#222222"/>
<path d="M21.8731 19.4434L36.4629 36.582V25.6687V19.4434H41.1035V28.3132V44H37.0254L22.3477 26.5801V44H17.707V19.4434H21.8731Z" fill="#222222"/>
</g>
<path d="M21.8731 19.4434L36.4629 36.582V25.6687L39 27.5L41.1035 28.3132V44H37.0254L22.3477 26.5801V44H17.707V19.4434H21.8731Z" fill="white"/>
<path d="M50.3304 31.1917L54.2738 33.6054L58.6635 37.1546L60.5 39L61.9206 40.6399C62.0195 40.4924 61.8322 40.7953 61.9206 40.6399C61.2073 41.7042 60.2228 42.5606 58.9671 43.209C57.5491 43.9473 55.9847 44.3164 54.2738 44.3164C52.5511 44.3164 50.9866 43.9473 49.5804 43.209C48.1741 42.4707 47.1019 41.4629 46.3636 40.1855C45.637 38.9082 45.2738 37.4199 45.2738 35.7207C45.2738 34.0684 45.6605 32.6035 46.4339 31.3262C46.7238 30.843 47.0566 30.4009 47.4322 30L49 30.5L50.3304 31.1917ZM49.8089 35.7207C49.8089 37.3613 50.2073 38.6738 51.0042 39.6582C51.8128 40.6309 52.8909 41.1172 54.2386 41.1172C55.6448 41.1172 56.7523 40.6484 57.5609 39.7109C58.1257 39.0561 58.4933 38.204 58.6635 37.1546C58.7371 36.7017 58.7738 36.212 58.7738 35.6855C58.7738 34.0215 58.3636 32.7383 57.5433 31.8359C56.7347 30.9219 55.6331 30.4648 54.2386 30.4648C53.02 30.4648 52.0136 30.879 51.2193 31.7073C51.158 31.7712 51.0981 31.8375 51.0394 31.9062C50.2191 32.8672 49.8089 34.1387 49.8089 35.7207Z" fill="white"/>
<path d="M76.4616 27.2656C77.7272 27.2656 78.7936 27.5645 79.6608 28.1621C80.5397 28.7481 81.1959 29.5391 81.6295 30.5352C82.5553 29.3984 83.4752 28.5723 84.3893 28.0566C85.3151 27.5293 86.3288 27.2656 87.4303 27.2656C89.1647 27.2656 90.5651 27.834 91.6315 28.9707C92.6979 30.0957 93.2311 31.6016 93.2311 33.4883V44H88.9069V34.209C88.9069 33.0723 88.6608 32.1758 88.1686 31.5195C87.6881 30.8633 86.985 30.5352 86.0592 30.5352C84.735 30.5352 83.4635 31.3848 82.2448 33.084V44H77.9381V34.1387C77.9381 33.0137 77.6803 32.1348 77.1647 31.502C76.6491 30.8574 75.9577 30.5352 75.0905 30.5352C74.3873 30.5352 73.7428 30.7402 73.1569 31.1504C72.5709 31.5488 71.944 32.1934 71.276 33.084V44H66.9518V27.582H71.276V29.8848C72.0612 28.9941 72.858 28.3379 73.6666 27.916C74.4752 27.4824 75.4069 27.2656 76.4616 27.2656Z" fill="black"/>
<path d="M103.519 27.2656C105.628 27.2656 107.239 27.7168 108.353 28.6191C109.466 29.5098 110.022 30.7578 110.022 32.3633V40.3965C110.022 41.0176 110.274 41.3281 110.778 41.3281C110.989 41.3281 111.282 41.2402 111.657 41.0645C112.044 40.877 112.366 40.666 112.624 40.4316V42.9277C111.112 43.8535 109.73 44.3164 108.476 44.3164C107.702 44.3164 107.105 44.1875 106.683 43.9297C106.272 43.6719 105.985 43.2148 105.821 42.5586C104.169 43.7305 102.511 44.3164 100.847 44.3164C99.663 44.3164 98.6435 43.918 97.788 43.1211C96.9443 42.3242 96.5224 41.3691 96.5224 40.2559C96.5224 38.8379 96.9443 37.7188 97.788 36.8984C98.6318 36.0781 100.108 35.3633 102.218 34.7539L105.716 33.7344V32.9785C105.716 31.373 104.743 30.5703 102.798 30.5703C101.802 30.5703 100.812 30.7988 99.8271 31.2559C98.8427 31.7129 97.9463 32.3867 97.1377 33.2773V29.3926C98.9306 27.9746 101.058 27.2656 103.519 27.2656ZM100.882 39.6055C100.882 40.2031 101.069 40.6836 101.444 41.0469C101.831 41.4102 102.306 41.5918 102.868 41.5918C103.817 41.5918 104.767 41.1582 105.716 40.291V35.9668C104.509 36.377 103.56 36.7637 102.868 37.127C102.188 37.4902 101.684 37.8594 101.356 38.2344C101.04 38.6094 100.882 39.0664 100.882 39.6055Z" fill="black"/>
<path d="M126.286 27.9512V19.4434H130.593V44H122.999C120.374 44 118.271 43.2441 116.689 41.7324C115.118 40.2207 114.333 38.1582 114.333 35.5449C114.333 33.998 114.697 32.5918 115.423 31.3262C116.161 30.0605 117.169 29.0703 118.447 28.3555C119.736 27.6289 121.124 27.2656 122.613 27.2656C123.761 27.2656 124.986 27.4941 126.286 27.9512ZM124.019 40.6953H126.286V31.1855C125.396 30.7285 124.47 30.5 123.509 30.5C122.068 30.5 120.913 30.9512 120.046 31.8535C119.191 32.7559 118.763 33.9395 118.763 35.4043C118.763 38.9316 120.515 40.6953 124.019 40.6953Z" fill="black"/>
<path d="M137.4 19.9883C138.068 19.9883 138.642 20.2285 139.123 20.709C139.603 21.1895 139.843 21.7637 139.843 22.4316C139.843 23.0762 139.603 23.6504 139.123 24.1543C138.654 24.6465 138.08 24.8926 137.4 24.8926C136.744 24.8926 136.17 24.6465 135.677 24.1543C135.197 23.6504 134.957 23.0762 134.957 22.4316C134.957 21.752 135.203 21.1777 135.695 20.709C136.187 20.2285 136.755 19.9883 137.4 19.9883ZM139.562 27.582V44H135.238V27.582H139.562Z" fill="black"/>
<path d="M152.082 27.2656C153.992 27.2656 155.721 27.6348 157.268 28.3731V32.0469C155.732 31.1562 154.279 30.7109 152.908 30.7109C151.432 30.7109 150.225 31.1738 149.287 32.0996C148.35 33.0137 147.881 34.2559 147.881 35.8262C147.881 37.3613 148.35 38.5977 149.287 39.5352C150.236 40.4727 151.496 40.9414 153.066 40.9414C154.238 40.9414 155.738 40.5547 157.566 39.7812V43.2793C155.867 43.9707 154.115 44.3164 152.31 44.3164C149.65 44.3164 147.488 43.5547 145.824 42.0312C144.172 40.5078 143.346 38.4863 143.346 35.9668C143.346 33.3535 144.154 31.25 145.771 29.6562C147.4 28.0625 149.504 27.2656 152.082 27.2656Z" fill="black"/>
<g clip-path="url(#clip1)">
<path d="M68.4111 52.6599L68.4935 54.4743L68.7056 56.1227L68.9487 57.4743L69.2637 58.9743L69.9642 62.8136L71.2083 65.2552C72.0426 66.3256 72.2937 66.3296 73.251 66.9743C73.8223 67.3591 74.7839 67.6568 75.2435 67.7243C76.1738 67.9348 76.4935 67.9743 77.9935 68.4743L78 69.2536C76.4414 69.945 74.9765 70.2907 73.6055 70.2907C71.7539 70.2907 70.3066 69.7868 69.2637 68.779C68.2324 67.7712 67.7168 66.4059 67.7168 64.6833V56.8259H65.1504V56.1227L68.4111 52.6599Z" fill="white"/>
<path d="M21.9785 45.4434L30.0469 55.1289L38.1152 45.4434H42.3516V70H37.6055V52.7559H37.4648L30.3633 61.4043H29.6953L22.5938 52.7559H22.4531V70H17.707V45.4434H21.9785Z" fill="white"/>
<path d="M54.7484 53.2656C57.1624 53.2656 59.0726 54.0391 60.4788 55.5859C61.8851 57.1328 62.5882 59.2715 62.5882 62.002V62.6523H50.9691C51.1448 64.1172 51.6898 65.248 52.6038 66.0449C53.5296 66.8301 54.7952 67.2227 56.4007 67.2227C57.432 67.2227 58.4222 67.0469 59.3714 66.6953C60.3323 66.332 61.3226 65.7871 62.3421 65.0605V68.2773C60.4202 69.6367 58.0882 70.3164 55.346 70.3164C52.7562 70.3164 50.6409 69.5371 49.0003 67.9785C47.3597 66.4199 46.5394 64.3457 46.5394 61.7559C46.5394 59.2598 47.2952 57.2207 48.807 55.6387C50.3304 54.0566 52.3109 53.2656 54.7484 53.2656ZM58.5277 60.0332C58.4105 58.8379 58.0472 57.9062 57.4378 57.2383C56.8284 56.5586 55.9905 56.2188 54.9241 56.2188C53.8343 56.2188 52.9554 56.541 52.2874 57.1855C51.6312 57.8301 51.2152 58.7793 51.0394 60.0332H58.5277Z" fill="white"/>
<path d="M84.9716 45.4434V55.8848H85.0771C86.4716 54.1387 88.1533 53.2656 90.122 53.2656C91.8681 53.2656 93.2744 53.8398 94.3408 54.9883C95.4072 56.1367 95.9404 57.6367 95.9404 59.4883V70H91.6338V60.3145C91.6338 59.2129 91.3701 58.3398 90.8427 57.6953C90.3271 57.0391 89.6181 56.7109 88.7158 56.7109C88.0595 56.7109 87.4384 56.8984 86.8525 57.2734C86.2783 57.6484 85.6513 58.2695 84.9716 59.1367V70H80.6474V45.4434H84.9716Z" fill="black"/>
<path d="M108.443 53.2656C110.154 53.2656 111.706 53.6231 113.101 54.3379C114.495 55.0527 115.573 56.0547 116.335 57.3438C117.097 58.6328 117.478 60.0918 117.478 61.7207C117.478 63.4199 117.109 64.9082 116.37 66.1855C115.644 67.4629 114.566 68.4707 113.136 69.209C111.718 69.9473 110.154 70.3164 108.443 70.3164C106.72 70.3164 105.155 69.9473 103.749 69.209C102.343 68.4707 101.271 67.4629 100.532 66.1855C99.8059 64.9082 99.4427 63.4199 99.4427 61.7207C99.4427 60.0684 99.8294 58.6035 100.603 57.3262C101.376 56.0371 102.454 55.041 103.837 54.3379C105.22 53.6231 106.755 53.2656 108.443 53.2656ZM103.978 61.7207C103.978 63.3613 104.376 64.6738 105.173 65.6582C105.982 66.6309 107.06 67.1172 108.407 67.1172C109.814 67.1172 110.921 66.6484 111.73 65.7109C112.538 64.7734 112.943 63.4316 112.943 61.6855C112.943 60.0215 112.532 58.7383 111.712 57.8359C110.904 56.9219 109.802 56.4648 108.407 56.4648C107.095 56.4648 106.029 56.9453 105.208 57.9062C104.388 58.8672 103.978 60.1387 103.978 61.7207Z" fill="black"/>
<path d="M132.213 53.9512V45.4434H136.519V70H128.925C126.3 70 124.197 69.2441 122.615 67.7324C121.045 66.2207 120.259 64.1582 120.259 61.5449C120.259 59.998 120.623 58.5918 121.349 57.3262C122.088 56.0605 123.095 55.0703 124.373 54.3555C125.662 53.6289 127.05 53.2656 128.539 53.2656C129.687 53.2656 130.912 53.4941 132.213 53.9512ZM129.945 66.6953H132.213V57.1855C131.322 56.7285 130.396 56.5 129.435 56.5C127.994 56.5 126.839 56.9512 125.972 57.8535C125.117 58.7559 124.689 59.9395 124.689 61.4043C124.689 64.9316 126.441 66.6953 129.945 66.6953Z" fill="black"/>
</g>
<defs>
<clipPath id="clip0">
<rect width="127.067" height="127.067" transform="matrix(-0.939482 -0.342598 -0.342598 0.939482 130.637 43.5329)" fill="white"/>
</clipPath>
<clipPath id="clip1">
<rect x="18" y="45" width="119" height="26" fill="white"/>
</clipPath>
</defs>
</svg>
